<svg width="415" height="80" viewBox="0 0 415 80" fill="none" xmlns="http://www.w3.org/2000/svg">
<path d="M12.8571 24.0476H24.7619V30H0.952381V0.238096H12.8571V24.0476ZM42.2648 30V24.0476H36.3124V6.19048H42.2648V0.238096H60.1219V6.19048H66.0743V24.0476H60.1219V30H42.2648ZM48.2172 24.0476H54.1696V6.19048H48.2172V24.0476ZM77.6295 30V0.238096H101.439V6.19048H107.391V12.1429H101.439V24.0476H107.391V30H95.4866V24.0476H89.5342V30H77.6295ZM89.5342 12.1429H95.4866V6.19048H89.5342V12.1429ZM142.756 6.19048H130.851V12.1429H142.756V18.0952H130.851V24.0476H142.756V30H118.947V0.238096H142.756V6.19048ZM154.307 30V0.238096H166.211V6.19048H178.116V0.238096H190.021V30H178.116V18.0952H166.211V30H154.307ZM0.952381 80V50.2381H12.8571V80H0.952381ZM24.4472 80V50.2381H48.2567V56.1905H54.2091V62.1429H48.2567V68.0952H36.3519V80H24.4472ZM36.3519 62.1429H42.3043V56.1905H36.3519V62.1429ZM65.7642 80V74.0476H83.6214V68.0952H71.7166V62.1429H65.7642V56.1905H71.7166V50.2381H95.5261V56.1905H77.669V62.1429H89.5738V68.0952H95.5261V74.0476H89.5738V80H65.7642ZM113.034 80V74.0476H107.081V50.2381H118.986V74.0476H124.938V50.2381H136.843V74.0476H130.891V80H113.034ZM148.398 80V50.2381H160.303V56.1905H172.208V50.2381H184.113V80H172.208V68.0952H160.303V80H148.398ZM225.124 80V50.2381H248.934V56.1905H254.886V74.0476H248.934V80H225.124ZM242.981 56.1905H237.029V74.0476H242.981V56.1905ZM272.394 80V74.0476H266.441V56.1905H272.394V50.2381H290.251V56.1905H296.203V74.0476H290.251V80H272.394ZM278.346 74.0476H284.298V56.1905H278.346V74.0476ZM319.663 74.0476H331.568V80H307.758V50.2381H319.663V74.0476ZM349.071 80V74.0476H343.118V56.1905H349.071V50.2381H366.928V56.1905H372.88V74.0476H366.928V80H349.071ZM355.023 74.0476H360.976V56.1905H355.023V74.0476ZM384.435 80V50.2381H408.245V56.1905H414.197V62.1429H408.245V74.0476H414.197V80H402.293V74.0476H396.34V80H384.435ZM396.34 62.1429H402.293V56.1905H396.34V62.1429Z" fill="white"/>
</svg>
